<svg viewBox="-27 24 100 100" xml:space="preserve" xmlns="http://www.w3.org/2000/svg" xmlns:xlink="http://www.w3.org/1999/xlink"><circle cx="23" cy="74" fill="#F5EEE5" r="50" class="fill-f5eee5"></circle><defs><circle cx="23" cy="74" id="a" r="50"></circle></defs><clipPath id="b"><use overflow="visible" xlink:href="#a"></use></clipPath><path clip-path="url(#b)" d="m36 97.9 7.1 1.8c7.6 2 22.8 5.9 22.8 5.9 3.2 1.1 5.7 3.5 7.1 6.6V124H-27v-11.8c1.3-3.1 3.9-5.5 7.1-6.6 0 0 15.2-3.9 22.8-5.9 2.4-.6 7.1-1.8 7.1-1.8V83h26v14.9z" fill="#E6C19C" class="fill-e6c19c"></path><g clip-path="url(#b)"><defs><path d="m36 97.9 7.1 1.8c7.6 2 22.8 5.9 22.8 5.9 3.2 1.1 5.7 3.5 7.1 6.6V124H-27v-11.8c1.3-3.1 3.9-5.5 7.1-6.6 0 0 15.2-3.9 22.8-5.9 2.4-.6 7.1-1.8 7.1-1.8V83h26v14.9z" id="c"></path></defs><clipPath id="d"><use overflow="visible" xlink:href="#c"></use></clipPath><path clip-path="url(#d)" d="M23.2 35h.2c3.3 0 8.2.2 11.4 2 3.3 1.9 7.3 5.6 8.5 12.1 2.4 13.7-2.1 35.4-6.3 42.4-4 6.7-9.8 9.2-13.5 9.4h-.6c-3.7-.2-9.5-2.7-13.5-9.4-4.2-7-8.7-28.7-6.3-42.4 1.2-6.5 5.2-10.2 8.5-12.1 3.2-1.8 8.1-2 11.4-2h.2z" fill="#D4B08C" class="fill-d4b08c"></path><path clip-path="url(#d)" d="M-27 82H73v42H-27V82zm50 32c13.5-.2 21-15 21-15S34 82 23 82 2 99 2 99s7.5 15.2 21 15z" fill="#8EBF1D" class="fill-8ebf1d"></path><path clip-path="url(#d)" d="M23 77C9.9 77-1.9 97.2-1.9 97.2S7 115.2 23 115s24.9-17.8 24.9-17.8S36.1 77 23 77zm0 34C10.9 111 2.2 96.9 2.2 96.9S12 81 23 81s20.8 15.9 20.8 15.9S35.1 111 23 111z" fill="#70A619" class="fill-70a619"></path></g><path d="M22.8 44c19.1 0 20.7 12.8 20.8 14.1 1.1 11.9-3 25.1-6.8 30.7-4 5.9-9.8 8.1-13.5 8.3h-.5c-3.8-.2-9.6-2.4-13.6-8.3C5.4 83.2 1.3 70 2.4 58c.1-1.3 1.3-14 20.4-14z" fill="#F2CEA5" class="fill-f2cea5"></path><path d="M23.1 86c-3.6 0-5.6-1-5.6-1-.3 0-.4.4-.3.7.3 1.8 2.3 4.3 6 4.3s5.6-2.5 5.9-4.3c.1-.3 0-.7-.3-.7-.2 0-2.2 1-5.7 1z" fill="#a3705f" class="fill-a3705f"></path><defs><path id="e" d="M7 68h31v5H7z"></path></defs><clipPath id="f"><use overflow="visible" xlink:href="#e"></use></clipPath><circle clip-path="url(#f)" cx="32" cy="72" fill="#291F21" r="2" class="fill-291f21"></circle><circle clip-path="url(#f)" cx="14" cy="72" fill="#291F21" r="2" class="fill-291f21"></circle><path d="M9 68.4c1-1.6 2.7-2.4 4.3-2.4 2.5 0 5 .6 6.5 2.1" fill="none" stroke="#CC9872" stroke-width="2" class="stroke-cc9872"></path><path d="M36.8 68.4c-1-1.6-2.7-2.4-4.3-2.4-3.5 0-6.9 1.1-7.7 4.3S23 79 23 79" fill="none" stroke="#BB8660" stroke-width="2" class="stroke-bb8660"></path><path d="M43.1 70.8s.7-3.4 2.6-4.4c1.3-5.5 1.4-7.4 1.4-8.3 0-2.9-.3-5.7-1.9-8.1-1.8-2.6-5.6-4.1-7.6-4.1-2.3 1.4-7.7 4.6-9.4 6.5-.9 1 .4 1.8.4 1.8s4.6-6 4.9-2.7 9.8 11.6 9.8 11.6v7.7z" fill="#452228" class="fill-452228"></path><path d="M-.5 60.6c0 1 .7 4.7 1.2 6.1 1.6.7 2.3 4.4 2.3 4.4v-8c6-1.7 12.8-5.1 16.7-10.3 1.2 3.6-.1 6.1-.1 6.1s6.7.2 11.7-3.6c3-2.3 6.6-9.2 6.6-9.2s-1.8-7.9-15-6.8c-5.6.5-8.3 3.9-17.4 3 0 0 .9 2.2 1.9 3.5-4 1.8-7.9 6.9-7.9 14.8z" fill="#6B363E" class="fill-6b363e"></path></svg>